<svg xmlns="http://www.w3.org/2000/svg" width="150" height="281" viewBox="0 0 1433 2304">
  <path fill="#322927" d="M359.809 914.061l-107.395-46.498.271-.953 257.987 37.498-.042.994-150.593 8.999"/>
  <path fill="#322927" d="M510.444 903.759l-257.987-37.498 107.394 46.497"/>
  <path fill="#C87952" d="M561.444 1805.029l-.33-.59 59.994-254.984.906-.158 226.998 349.935.041.467-.071.168-.618.281"/>
  <path fill="#C87952" d="M848.436 1898.662l-226.998-349.935-59.993 254.984 286.92 95.119"/>
  <path fill="#323136" d="M1011.274 1473.795l-.468-.856.106-.614 40.498-35.998.128-.082.275-.123.148-.041 143.992-16.498.547.4.193.979-.353.577-184.49 52.496"/>
  <path fill="#323136" d="M1011.244 1472.699l40.498-35.998.276-.123 143.992-16.498.193.979-184.49 52.496"/>
  <path fill="#323136" d="M1011.088 1471.856l40.498-35.998.275-.123 143.993-16.498.193.978-184.49 52.496"/>
  <path fill="#323136" d="M1011.42 1472.23l184.49-52.496-143.992 16.498"/>
  <path fill="#CE8C69" d="M252.359 867.536l-50.997-29.999.201-.928 157.492-16.499.253.955-106.495 46.497"/>
  <path fill="#CE8C69" d="M358.951 819.763l-157.492 16.499 50.998 29.999"/>
  <path fill="#27211E" d="M623.03 693.668l-40-112 .607-.649 190.999 54 .044.948-151 58"/>
  <path fill="#27211E" d="M623.344 692.656l151-58-191-54"/>
  <path fill="#D98F65" d="M340.756 1249.938l-.122-.508 40.498-124.493.974.183-8.995 155.917-.146.061.127.033-.854.29"/>
  <path fill="#D98F65" d="M372.452 1280.16l.004.004 8.995-155.916-40.498 124.493 31.482 31.483"/>
  <path fill="#B67254" d="M330.12 1397.936l7.882-88.481.963-.14 16.091 40.535-.017.408-23.974 47.945"/>
  <path fill="#B67254" d="M338.344 1308.656l-7.882 88.481 23.973-47.946"/>
  <path fill="#AA655C" d="M194.05 1294.716l-23-48 .626-.685 56 21 .141.856-33 27"/>
  <path fill="#AA655C" d="M227.344 1266.656l-56-21 23 48"/>
  <path fill="#CA735F" d="M182.012 1319.605l.038-.322 12-25 .945.289-7 48-.983.033"/>
  <path fill="#CA735F" d="M182.344 1318.656l5 23 7-48"/>
  <path fill="#CD715F" d="M187.006 1342.428l7-48 .848-.282 20 20 .006.7-27 28"/>
  <path fill="#CD715F" d="M194.344 1293.656l-7 48 27-28"/>
  <path fill="#362C23" d="M250.022 482.646l.04-.387 56-102 .938.27-14.087 238.719-.977.117"/>
  <path fill="#362C23" d="M250.344 481.656l41.914 136.719 14.086-238.719"/>
  <path fill="#271C16" d="M306.147 380.146l46-46 .298-.143 116-13 .226.967-162 59"/>
  <path fill="#271C16" d="M352.344 333.656l-46 46 162-59"/>
  <path fill="#291F1E" d="M291.884 619.715l.031-.526.977-.117.087.281-.028.363-.117.244m-.576-1.585l-.031.525.117-.244"/>
  <path fill="#291F1E" d="M292.875 620.204l-.571-.244-.303-.489 14-239 .94-.207 115 215-.348.727-128.429 24.244"/>
  <path fill="#291F1E" d="M292.915 618.9l128.429-24.244-115-215-14 239"/>
  <path fill="#271B16" d="M421.282 595.95l.176-.948 162-14 .513.33 40 112-.689.618"/>
  <path fill="#271B16" d="M583.344 580.656l-162 14 202 98"/>
  <path fill="#191111" d="M421.062 595.261l49-90 .717-.176 113 76-.236.913-162 14"/>
  <path fill="#191111" d="M470.344 504.656l-49 90 162-14"/>
  <path fill="#1C1512" d="M421.06 595.736l-115-215 .744-.633 164 125 .135.636-49 90"/>
  <path fill="#1C1512" d="M470.344 504.656l-164-125 115 215"/>
  <path fill="#2B2221" d="M470.197 505.897l-164-125 .436-.879 254 70 .128.909-90 55"/>
  <path fill="#2B2221" d="M560.344 449.656l-254-70 164 125"/>
  <path fill="#1D160F" d="M306.368 380.982l-.038-.952 162-59 .578.179 92 129-.54.773"/>
  <path fill="#1D160F" d="M468.344 320.656l-162 59 254 70"/>
  <path fill="#1B1213" d="M468.093 321.791l.431-.791 148 7 .431.708-56 122-.862.083"/>
  <path fill="#1B1213" d="M616.344 327.656l-148-7 92 129"/>
  <path fill="#362723" d="M470.222 505.915l.018-.842 90-55 .753.341 23 131-.771.501"/>
  <path fill="#362723" d="M560.344 449.656l-90 55 113 76"/>
  <path fill="#261E1C" d="M560.046 450.292l56-122 .438-.292 177.999-6 .257.938-234 128"/>
  <path fill="#261E1C" d="M794.344 321.656l-178 6-56 122"/>
  <path fill="#1A1512" d="M583.364 581.981l-.356-.395-23-131 .82-.464 213.999 185-.463.859"/>
  <path fill="#1A1512" d="M774.344 634.656l-214-185 23 131"/>
  <path fill="#28211F" d="M623.429 693.995l-.108-.962 150.999-58 .653.304 29 84-.544.658"/>
  <path fill="#28211F" d="M803.344 718.656l-29-84-151 58"/>
  <path fill="#17120E" d="M803.027 719.663l-29-84 .671-.622 183 79-.181.959-154 5"/>
  <path fill="#17120E" d="M957.344 713.656l-183-79 29 84"/>
  <path fill="#221816" d="M560.173 450.878l.088-.816 233.999-128 .739.47-20 313-.826.346"/>
  <path fill="#221816" d="M774.344 634.656l20-313-234 128"/>
  <path fill="#1A1615" d="M774.001 635.468l20-313 .54-.467 218 18 .348.813-238 295"/>
  <path fill="#1A1615" d="M1012.344 339.656l-218-18-20 313"/>
  <path fill="#29221C" d="M957.302 714.959l-183-79 .262-.955 386 50 .006.991-203 29"/>
  <path fill="#29221C" d="M1160.344 684.656l-386-50 183 79"/>
  <path fill="#0C0B09" d="M1160.391 685.988l-.043-.965 138-44 .644.566-13 72-.601.399"/>
  <path fill="#0C0B09" d="M1285.344 712.656l13-72-138 44"/>
  <path fill="#090707" d="M1160.085 685.221l93-138 .866.063 45 94-.299.693-138 44"/>
  <path fill="#090707" d="M1298.344 640.656l-45-94-93 138"/>
  <path fill="#1F1815" d="M774.436 635.996l-.027-.988 479-88 .506.771-93 138-.479.217"/>
  <path fill="#1F1815" d="M1160.344 684.656l93-138-479 88"/>
  <path fill="#100D0C" d="M774.258 635.063l384-213 .64.134 95 125-.307.795-479 88"/>
  <path fill="#100D0C" d="M1253.344 546.656l-95-125-384 213"/>
  <path fill="#131311" d="M774.111 635.186l238-295 .634-.122 146 82-.003.873-384 213"/>
  <path fill="#131311" d="M1158.344 421.656l-146-82-238 295"/>
  <path fill="#3D2A23" d="M550.647 799.823l.039-.497 72.401-106.108.909.35-27.403 200.603-.947.147"/>
  <path fill="#3D2A23" d="M623.344 692.656l-72.401 106.108 44.998 94.496"/>
  <path fill="#221816" d="M595.729 894.442l-.127-.406 27.403-200.604.99-.004 40.093 274.099-.862.411"/>
  <path fill="#221816" d="M663.438 966.756l-40.094-274.1-27.403 200.604"/>
  <path fill="#1F1714" d="M663.099 967.672l-40.093-274.1.876-.395L764.47 859.282l-.016.664L663.96 967.94"/>
  <path fill="#1F1714" d="M763.932 858.761L623.344 692.656l40.094 274.1"/>
  <path fill="#211814" d="M623.119 693.823l.453-.818 179.999 26 .41.63-39.412 140.105-.863.188"/>
  <path fill="#211814" d="M803.344 718.656l-180-26 140.588 166.105"/>
  <path fill="#211715" d="M763.606 859.47l39.413-140.105.464-.365 154-5 .317.9-193.412 145.105"/>
  <path fill="#211715" d="M957.344 713.656l-154 5-39.412 140.105"/>
  <path fill="#171311" d="M957.268 714.943l.162-.938 203-29 .569.531-9.432 130.608-.731.406"/>
  <path fill="#171311" d="M1150.912 815.264l9.432-130.608-203 29"/>
  <path fill="#140F0C" d="M1150.569 816.071l9.432-130.607.608-.452 125 28 .195.885-134.432 102.608"/>
  <path fill="#140F0C" d="M1150.912 815.264l134.432-102.608-125-28"/>
  <path fill="#16110E" d="M1150.765 815.71l134.431-102.607.746.165 51.561 98.107-.431.732-185.992 4.5"/>
  <path fill="#16110E" d="M1336.904 810.764l-51.56-98.108-134.432 102.608"/>
  <path fill="#1F1711" d="M1150.85 816.557l.207-.95 185.992-4.5.502.402 20.998 104.995-.709.548"/>
  <path fill="#1F1711" d="M1357.902 915.758l-20.998-104.994-185.992 4.5"/>
  <path fill="#1A1511" d="M1150.683 816.425l.604-.767 206.99 100.494.271.554-25.498 119.994-.875.214"/>
  <path fill="#1A1511" d="M1332.404 1035.752l25.498-119.994-206.99-100.494"/>
  <path fill="#1A1413" d="M1143.3 1059.516l.211-.917 188.99-22.499.543.626-32.998 122.993-.754.291"/>
  <path fill="#1A1413" d="M1299.406 1158.746l32.998-122.994-188.99 22.499"/>
  <path fill="#1B1612" d="M1143.07 1059.08l7.498-242.988.886-.302 181.492 220.488-.326.815-188.99 22.499z"/>
  <path fill="#1B1612" d="M1143.414 1058.251l188.99-22.499-181.492-220.488z"/>
  <path fill="#110D0C" d="M1255.156 1301.005l-112.492-241.488.124-.588.724-.631.599-.044 155.993 100.496.199.249.207.567.008.319-43.5 140.993-.444.351-.93.064"/>
  <path fill="#110D0C" d="M1143.117 1059.306l.724-.631 155.992 100.495.207.567-43.5 140.993-.931.064"/>
  <path fill="#110D0C" d="M1142.961 1058.462l.724-.631 155.992 100.495.207.568-43.5 140.993-.931.063"/>
  <path fill="#110D0C" d="M1255.906 1299.739l43.5-140.993-155.992-100.495"/>
  <path fill="#120C09" d="M1051.661 1437.745l-.335-.912.192-.589 203.988-136.492.608.041.726.639.117.598-59.996 119.994-.16.186-.391.273-.23.088-143.992 16.498"/>
  <path fill="#120C09" d="M1051.796 1436.66l203.988-136.492.726.639-59.996 119.994-.391.273-143.992 16.498"/>
  <path fill="#120C09" d="M1051.64 1435.816l203.988-136.493.726.64-59.997 119.995-.39.273-143.992 16.498"/>
  <path fill="#120C09" d="M1195.91 1419.734l59.996-119.995-203.988 136.493"/>
  <path fill="#130E0B" d="M1011.076 1473.053l10.498-254.987.995-.046 30 218.988-.163.441-40.498 35.998"/>
  <path fill="#130E0B" d="M1051.918 1436.232l-30-218.989-10.498 254.987"/>
  <path fill="#0D0D0D" d="M1051.373 1437.599l-.289-.389-30-218.988.179-.455.661-.539.482-.084 233.989 82.496.33.409.112.887-.218.478-203.988 136.494-.485.04"/>
  <path fill="#0D0D0D" d="M1051.579 1437.143l-30-218.989.661-.539 233.989 82.496.112.887-203.988 136.494"/>
  <path fill="#0D0D0D" d="M1051.423 1436.3l-30-218.989.661-.54 233.988 82.497.113.887-203.989 136.493"/>
  <path fill="#0D0D0D" d="M1051.918 1436.232l203.988-136.493-233.988-82.496"/>
  <path fill="#0F0E0C" d="M1021.742 1219.03l-.286-.258-.304-.642-.017-.385 30-82.495.336-.312.784-.217.448.093 203.988 164.992.122.632-.48.861-.603.227"/>
  <path fill="#0F0E0C" d="M1021.908 1218.559l-.304-.643 30-82.496.785-.217 203.988 164.991-.481.861"/>
  <path fill="#0F0E0C" d="M1021.752 1217.715l-.304-.643 30-82.495.784-.218 203.989 164.992-.481.86"/>
  <path fill="#0F0E0C" d="M1021.918 1217.243l233.988 82.496-203.988-164.991"/>
  <path fill="#15110F" d="M1255.434 1301.36l-203.989-164.991-.185-.385-.006-.773.18-.387 91.496-76.496.429-.104.774.172.344.277 112.492 241.488-.146.605-.767.599"/>
  <path fill="#15110F" d="M1051.76 1135.98l-.006-.772 91.496-76.497.773.173 112.493 241.488-.768.6"/>
  <path fill="#15110F" d="M1051.604 1135.136l-.006-.772 91.496-76.496.773.173 112.492 241.487-.767.6"/>
  <path fill="#15110F" d="M1051.918 1134.748l203.988 164.991-112.492-241.488"/>
  <path fill="#150F0F" d="M1051.581 1135.671l-9-55.497.391-.57 100.496-20.998.423.873-91.496 76.496"/>
  <path fill="#150F0F" d="M1051.918 1134.748l91.496-76.497-100.496 20.999"/>
  <path fill="#140F0C" d="M996.202 1027.928l-.124-.376 13.5-149.993.991-.036 32.998 202.49-.867.412"/>
  <path fill="#140F0C" d="M1042.918 1079.25l-32.998-202.49-13.5 149.993"/>
  <path fill="#131311" d="M1042.581 1080.174l-32.998-202.489.896-.377 133.494 181.491-.3.785-100.496 20.999"/>
  <path fill="#131311" d="M1042.918 1079.25l100.496-20.999L1009.92 876.76"/>
  <path fill="#1F1512" d="M1009.674 877.9l.202-.754 140.992-61.497.7.474-7.498 242.988-.902.281"/>
  <path fill="#1F1512" d="M1143.414 1058.251l7.498-242.987-140.992 61.496"/>
  <path fill="#251A17" d="M764.052 860.104l-.264-.899L957.2 714.1l.776.247 52.576 163.104-.512.652"/>
  <path fill="#251A17" d="M1009.92 876.76l-52.576-163.104-193.412 145.105"/>
  <path fill="#231D1B" d="M1009.601 877.757l-52.577-163.104.708-.596 193.569 101.608-.032.901-140.993 61.496"/>
  <path fill="#231D1B" d="M1009.92 876.76l140.992-61.496-193.568-101.608"/>
  <path fill="#160E0C" d="M939.539 1023.595l-.411-.717 70.498-145.492.948.263-13.5 149.993-.537.453"/>
  <path fill="#160E0C" d="M996.42 1026.753l13.5-149.993-70.498 145.493"/>
  <path fill="#100D0C" d="M885.16 1050.365L763.666 859.874l.763-.635 175.49 163.492-.117.813-53.996 26.999"/>
  <path fill="#100D0C" d="M939.422 1022.253l-175.49-163.492 121.494 190.491"/>
  <path fill="#1D1512" d="M763.747 859.971l.377-.865 245.988 17.999.414.717-70.498 145.493-.791.147"/>
  <path fill="#1D1512" d="M939.422 1022.253l70.498-145.493-245.988-17.999"/>
  <path fill="#211713" d="M777.089 1108.62l-13.5-248.988.921-.296 121.494 190.491-.184.708-107.994 58.497"/>
  <path fill="#211713" d="M763.932 858.761l13.5 248.988 107.994-58.497"/>
  <path fill="#191411" d="M663.205 967.914l.023-.655 100.494-107.995.865.314 13.5 248.988-.888.341"/>
  <path fill="#191411" d="M663.438 966.756l113.994 140.993-13.5-248.988"/>
  <path fill="#140F0C" d="M670.593 1131.114l-7.499-163.491.888-.338 113.995 140.993-.286.804-106.495 22.499"/>
  <path fill="#140F0C" d="M663.438 966.756l7.498 163.492 106.496-22.499"/>
  <path fill="#2E211A" d="M670.686 1131.382l.303-.78 106.495-22.498.578.647-38.999 116.994-.88.132"/>
  <path fill="#2E211A" d="M777.432 1107.749l-106.496 22.499 67.497 94.495"/>
  <path fill="#2D211B" d="M670.625 1131.27l.874-.469 67.497 94.496.093.305-2.188 76.246-.966.164"/>
  <path fill="#2D211B" d="M738.433 1224.743l-67.497-94.495 65.309 170.741"/>
  <path fill="#1D1714" d="M364.945 1590.541l.131-.973 191.991-11.998.273.938-86.996 47.996-.404.035"/>
  <path fill="#1D1714" d="M364.951 1589.225l104.995 35.998 86.996-47.996"/>
  <path fill="#2E2017" d="M629.11 1444.66l-.152-.734 107.045-142.393.888.406-39.349 180.913-.736.328"/>
  <path fill="#2E2017" d="M736.245 1300.989l-107.044 142.394 67.695 38.519"/>
  <path fill="#452C1F" d="M642.286 1228.98l-.172-.533 28.498-97.496.947-.038 65.309 170.741-.773.573"/>
  <path fill="#452C1F" d="M670.936 1130.248l-28.498 97.495 93.807 73.246"/>
  <path fill="#38221C" d="M549.336 1289.064l.125-.724 92.861-60.172.751.562-38.998 130.493-.876.16"/>
  <path fill="#38221C" d="M549.577 1287.916l53.862 70.32 38.999-130.493"/>
  <path fill="#321F18" d="M603.117 1358.936l38.998-130.493.786-.25 93.809 73.246-.11.853-132.807 57.247"/>
  <path fill="#321F18" d="M642.438 1227.743l-38.999 130.493 132.806-57.247"/>
  <path fill="#38221C" d="M628.985 1444.59l-.395.045-25.473-85.412.281-.602 132.806-57.247.598.759-107.045 142.394-.648.133"/>
  <path fill="#38221C" d="M629.201 1443.383l107.044-142.394-132.806 57.247 25.474 85.412.025-.416"/>
  <path fill="#2C1E1D" d="M556.658 1577.832L628.62 1444.4l.939.268-6.264 103.875-.169.346-.821.722-.127.082-64.877 28.834"/>
  <path fill="#2C1E1D" d="M622.64 1547.67l6.264-103.875-71.962 133.432 64.876-28.834"/>
  <path fill="#2D1F1A" d="M556.609 1577.967l46.497-218.99.969-.039 25.473 85.412.02.173-.009.147-.059.205-71.962 133.432"/>
  <path fill="#2D1F1A" d="M628.913 1443.648l-25.474-85.412-46.497 218.991 71.962-133.432"/>
  <path fill="#38271C" d="M455.073 1350.578l-.242-.918 94.63-61.32.669.115 53.863 70.32-.428.803"/>
  <path fill="#38271C" d="M549.577 1287.916l-94.63 61.32 148.492 9"/>
  <path fill="#29211B" d="M454.646 1350.283l.487-.703 148.493 9 .459.604-46.498 218.99-.945.099"/>
  <path fill="#29211B" d="M454.947 1349.236l101.995 227.991 46.497-218.991"/>
  <path fill="#50352F" d="M186.165 1363.795l.689-.656 38.998 21 .262.418 3 67.496-.951.238"/>
  <path fill="#50352F" d="M225.458 1383.736l-38.998-21 41.998 88.496"/>
  <path fill="#3B322B" d="M166.622 1516.508l19.499-152.992.947-.151 41.998 88.496-.09.559-61.497 64.496"/>
  <path fill="#3B322B" d="M186.46 1362.736l-19.499 152.993 61.497-64.497"/>
  <path fill="#241C1A" d="M166.704 1516.852l.052-.625 61.496-64.497.849.459-26.998 115.495-.901.166"/>
  <path fill="#241C1A" d="M166.961 1515.729l34.498 50.998 26.999-115.495"/>
  <path fill="#1A1211" d="M201.461 1568.045l-.332-.59 26.998-115.494.969-.018 37.498 136.493-.636.607"/>
  <path fill="#1A1211" d="M201.459 1566.727l64.497 20.998-37.498-136.493"/>
  <path fill="#191411" d="M266.104 1589.068l-.474-.367-37.498-136.492.838-.484 136.493 137.992-.363.851"/>
  <path fill="#191411" d="M265.956 1587.725l98.995 1.5-136.493-137.993"/>
  <path fill="#271E19" d="M228.259 1452.428l.121-.793 101.995-53.998.727.351 34.498 191.991-.848.441"/>
  <path fill="#271E19" d="M228.458 1451.232l136.493 137.993-34.498-191.991"/>
  <path fill="#2F1F1A" d="M364.615 1590.156l-34.498-191.99.313-.555 124.493-47.998.648.643-89.995 239.988"/>
  <path fill="#2F1F1A" d="M330.453 1397.234l34.498 191.991 89.996-239.989"/>
  <path fill="#241A18" d="M364.639 1589.893l89.996-239.989.925-.029 101.995 227.99-.426.703-191.99 11.998"/>
  <path fill="#241A18" d="M454.947 1349.236l-89.996 239.989 191.991-11.998"/>
  <path fill="#995B4B" d="M180.381 1287.525l-.252-.332-9.116-40.584.938-.325 23 48-.686.657"/>
  <path fill="#995B4B" d="M171.344 1245.656l9.116 40.584 13.884 7.416"/>
  <path fill="#CA735F" d="M182.001 1319.529l-1.883-32.416.734-.47 13.884 7.416.215.658-12 25"/>
  <path fill="#CA735F" d="M180.46 1286.24l1.884 32.416 12-25"/>
  <path fill="#A96441" d="M734.091 1404.068l1.81-102.244.719-.441 56.184 27.248.177.756-57.996 74.996"/>
  <path fill="#A96441" d="M734.435 1403.234l57.995-74.996-56.185-27.249"/>
  <path fill="#C96F47" d="M792.092 1329.004l15-94.496.867-.256 25.498 28.5.053.595-40.498 65.997"/>
  <path fill="#C96F47" d="M792.43 1328.238l40.498-65.997-25.498-28.499"/>
  <path fill="#C5744C" d="M735.901 1301.818l2.188-76.246.564-.48 68.997 8.998.28.859-71.185 67.247"/>
  <path fill="#C5744C" d="M738.433 1224.743l-2.188 76.246 71.185-67.247"/>
  <path fill="#CB7548" d="M738.524 1226.082l-.103-.967 109.495-38.998.55.794-40.498 47.997-.447.174"/>
  <path fill="#CB7548" d="M847.928 1185.745l-109.495 38.998 68.997 8.999"/>
  <path fill="#C55F3D" d="M807.213 1234.92l-.009-.656 40.498-47.997.872.419-15 76.496-.863.236"/>
  <path fill="#C55F3D" d="M807.43 1233.742l25.498 28.499 15-76.496"/>
  <path fill="#D57348" d="M832.594 1262.988l15-76.496.963-.065 17.998 52.497-.179.566-32.998 23.999"/>
  <path fill="#D57348" d="M832.928 1262.241l32.998-23.999-17.998-52.497"/>
  <path fill="#AA6040" d="M777.35 1108.153l107.994-58.497.718.297 16.498 55.497-.468.643-124.492 3"/>
  <path fill="#AA6040" d="M885.426 1049.252l-107.994 58.497 124.492-3"/>
  <path fill="#C16846" d="M901.601 1105.735l-16.498-55.497.469-.642 76.496-1.5.355.862-59.998 56.997"/>
  <path fill="#C16846" d="M901.924 1104.749l59.998-56.997-76.496 1.5"/>
  <path fill="#F39668" d="M961.703 1048.927l-22.5-25.499.414-.83 56.998 4.5.221.926-34.498 20.999"/>
  <path fill="#F39668" d="M996.42 1026.753l-56.998-4.5 22.5 25.499"/>
  <path fill="#F79469" d="M961.896 1049.062l-.078-.894 34.498-20.999.634.096 46.498 52.497-.555.798"/>
  <path fill="#F79469" d="M961.922 1047.752l80.996 31.498-46.498-52.497"/>
  <path fill="#DC8559" d="M901.7 1105.918l.035-.688 59.998-56.997.84.431-15 109.494-.875.257"/>
  <path fill="#DC8559" d="M901.924 1104.749l44.998 52.497 15-109.494"/>
  <path fill="#E58762" d="M946.583 1158.021l15-109.493.677-.398 80.996 31.498.134.854-95.996 77.997"/>
  <path fill="#E58762" d="M946.922 1157.246l95.996-77.996-80.996-31.498"/>
  <path fill="#F17B62" d="M946.763 1157.701l95.996-77.995.808.308 9 55.497-.388.569-104.996 22.498"/>
  <path fill="#F17B62" d="M946.922 1157.246l104.996-22.498-9-55.498"/>
  <path fill="#A16448" d="M550.614 799.729l-19.5-77.996.338-.599 91.902-28.112.56.76-72.402 106.108"/>
  <path fill="#A16448" d="M531.442 720.768l19.501 77.996 72.401-106.108"/>
  <path fill="#CB885E" d="M292.875 620.204l.104-.952 128.429-24.243.592.473 2.873 80.319-.696.478"/>
  <path fill="#CB885E" d="M421.344 594.656L292.915 618.9l131.302 56.076"/>
  <path fill="#D68F68" d="M240.305 728.005l-.142-.61 51.77-107.867.531.138.107-.251.29.123.279.303 66.442 200.609-.783.55"/>
  <path fill="#D68F68" d="M292.509 619.154l-.29-.123.008-.131-51.77 107.868 118.494 92.995"/>
  <path fill="#D6936A" d="M201.144 836.938l38.998-109.495.78-.225 118.494 92.995-.256.891-157.493 16.499"/>
  <path fill="#D6936A" d="M240.457 726.768l-38.998 109.494 157.492-16.499"/>
  <path fill="#E0966F" d="M358.633 820.764l-66.442-200.609.67-.617 1.407.597.09.05 257.027 179.013-.232.907-191.991 20.999"/>
  <path fill="#E0966F" d="M293.917 619.751l-1.408-.597 66.442 200.609 191.992-20.999"/>
  <path fill="#E0966F" d="M292.135 619.988l-.109-.331.76-.567.397.276-.193.902-.287.054m-.359-1.666l.11.331.287-.054"/>
  <path fill="#E0966F" d="M292.47 620.458l-.279-.302-.056-.168.382-.649.288-.054.378.081 1.175.819-.481.871"/>
  <path fill="#E0966F" d="M292.741 618.933l-.287.054.055.167 1.408.597"/>
  <path fill="#D98C5E" d="M358.865 821.044l.188-.934 191.992-20.999.52.677-40.499 104.994-.709.258"/>
  <path fill="#D98C5E" d="M550.943 798.764l-191.992 20.999 151.493 83.996"/>
  <path fill="#C08D67" d="M387.444 863.078l-.252-.192-28.498-41.998.656-.719 151.493 83.996-.405.911"/>
  <path fill="#C08D67" d="M510.444 903.759l-151.493-83.996 28.499 41.998"/>
  <path fill="#5A4742" d="M252.541 867.599l.055-.994 134.993-4.5.179.027 122.994 41.997-.234.968"/>
  <path fill="#5A4742" d="M387.45 861.761l-134.993 4.5 257.987 37.498"/>
  <path fill="#372C26" d="M193.771 870.466l-.143-.472 7.499-32.999.953-.073 25.499 64.497-.81.546"/>
  <path fill="#372C26" d="M193.959 869.261l32.999 31.498-25.499-64.497"/>
  <path fill="#BC7A5C" d="M226.649 901.787L201.15 837.29l.719-.615 50.997 29.998.149.729-25.499 34.498"/>
  <path fill="#BC7A5C" d="M201.459 836.262l25.499 64.497 25.499-34.498"/>
  <path fill="#D79771" d="M252.413 866.646l106.494-46.497.614.177 28.499 41.998-.397.78-134.994 4.5"/>
  <path fill="#D79771" d="M358.951 819.763l-106.494 46.498 134.993-4.5"/>
  <path fill="#A46245" d="M359.902 914.091l.076-.988 150.592-8.999.429.197 37.498 49.498-.504.79"/>
  <path fill="#A46245" d="M510.444 903.759l-150.593 8.999 188.091 40.499"/>
  <path fill="#D07C54" d="M547.7 954.402l-37.498-49.498.337-.798 85.497-10.499.452.809-47.999 59.997"/>
  <path fill="#D07C54" d="M595.941 893.26l-85.497 10.499 37.498 49.498"/>
  <path fill="#CB784C" d="M547.688 954.386l.468-.782 115.496 13.499.441.474 7.499 163.491-.91.308"/>
  <path fill="#CB784C" d="M547.942 953.257l122.994 176.991-7.498-163.492"/>
  <path fill="#B87552" d="M227.03 902.096l-.318-.79 25.499-34.499.886.173 10.406 40.624-.568.616"/>
  <path fill="#B87552" d="M252.457 866.261l-25.499 34.498 35.904 6.125"/>
  <path fill="#B57555" d="M222.116 958.561l4.5-56.998.582-.453 35.905 6.125.307.804-40.404 50.873"/>
  <path fill="#B57555" d="M226.958 900.759l-4.5 56.998 40.404-50.873"/>
  <path fill="#E78E68" d="M88.687 1124.844l53.997-94.495.099-.122 79.496-71.997.725.684-133.493 166.491"/>
  <path fill="#E78E68" d="M142.962 1029.753l-53.997 94.496 133.493-166.492"/>
  <path fill="#C38365" d="M96.413 1161.545l-.281-.354-7.5-35.997.874-.421 43.498 52.497-.593.773"/>
  <path fill="#C38365" d="M96.465 1160.246l35.998 16.499-43.498-52.496"/>
  <path fill="#CB7754" d="M132.234 1177.908l-43.498-52.497.533-.796 86.997 26.997.105.909-43.498 25.499"/>
  <path fill="#CB7754" d="M88.965 1124.249l43.498 52.496 43.498-25.499"/>
  <path fill="#8C4436" d="M132.612 1178.089l-.245-.931 43.498-25.499.467-.021 56.997 26.999-.222.952"/>
  <path fill="#8C4436" d="M175.961 1151.246l-43.498 25.499 100.495 1.5"/>
  <path fill="#8F4B3B" d="M169.303 1207.977l-36.998-30 .322-.888 100.495 1.5.197.956-63.497 28.499"/>
  <path fill="#8F4B3B" d="M132.463 1176.745l36.998 29.999 63.497-28.499"/>
  <path fill="#493933" d="M171.001 1246.523l-1.883-38.912.57-.518 73.997 10.499.112.961-72.113 28.412"/>
  <path fill="#493933" d="M169.461 1206.744l1.883 38.912 72.114-28.413"/>
  <path fill="#5E3F35" d="M227.324 1267.968l-.299-.622 16.114-49.414.822-.205 94.886 91.414-.523.827"/>
  <path fill="#5E3F35" d="M243.458 1217.243l-16.114 49.413 111 42"/>
  <path fill="#3B322B" d="M186.38 1364.02l-.263-.461.884-21.08.87-.315 38.114 42.08-.608.776"/>
  <path fill="#3B322B" d="M187.344 1341.656l-.884 21.08 38.998 21"/>
  <path fill="#3B322B" d="M187.13 1342.836l.33-.834 49-4 .527.613-10.885 46.08-.858.221"/>
  <path fill="#3B322B" d="M236.344 1337.656l-49 4 38.114 42.08"/>
  <path fill="#C77D5A" d="M228.115 1452.098l-3-67.496.564-.518 104.994 13.498.17.938-101.995 53.998"/>
  <path fill="#C77D5A" d="M228.458 1451.232l101.995-53.998-104.995-13.498"/>
  <path fill="#D37759" d="M225.128 1384.465l10.886-46.08.383-.375 38-8 .475.824-48.886 54.08"/>
  <path fill="#D37759" d="M236.344 1337.656l-10.886 46.08 48.886-54.08"/>
  <path fill="#D0855D" d="M225.551 1385.076l-.307-.832 48.885-54.08.756.016 56.109 67.578-.449.816"/>
  <path fill="#D0855D" d="M225.458 1383.736l104.995 13.498-56.109-67.578"/>
  <path fill="#D28D66" d="M274.116 1330.818l.229-.793 64-21 .654.52-7.884 88.496-.05.162-.168-.076-.672.269"/>
  <path fill="#D28D66" d="M330.453 1397.154l.009-.017 7.882-88.481-64 21 56.109 67.578.007-.082"/>
  <path fill="#D3704E" d="M232.851 1178.664l67.496-41.997.747.554-10.499 38.998-.457.369-56.997 3"/>
  <path fill="#D3704E" d="M300.455 1136.247l-67.497 41.998 56.998-3"/>
  <path fill="#B47159" d="M169.547 1208.083l-.134-.951 63.497-28.499.688.326 10.499 38.998-.553.625"/>
  <path fill="#B47159" d="M232.958 1178.245l-63.497 28.499 73.997 10.499"/>
  <path fill="#67443B" d="M243.268 1218.447l.5-.836 97.495 31.498.346.498-2.609 59.914-.846.338"/>
  <path fill="#67443B" d="M340.953 1248.741l-97.495-31.498 94.886 91.413"/>
  <path fill="#493933" d="M338.001 1309.479l2.609-59.917.853-.331 31.482 31.483.13.48-.174.296-34.081 28.395"/>
  <path fill="#493933" d="M372.435 1280.224l-31.482-31.483-2.609 59.915 34.081-28.393"/>
  <path fill="#3B2923" d="M354.126 1350.219l-16.09-40.534.145-.57 34.08-28.392.804.509-17.972 68.893-.037.098"/>
  <path fill="#3B2923" d="M354.453 1349.156l17.972-68.893-34.081 28.393 16.091 40.535"/>
  <path fill="#49281A" d="M330.119 1397.949l.052-.193 23.973-47.945.132.005.354-.316h100.377l.335.129-.125.863-124.421 47.971"/>
  <path fill="#49281A" d="M454.851 1349.156H354.474l-.021.08-.018-.045-23.973 47.946-.002.015 124.421-47.97-.015-.012"/>
  <path fill="#CF7B5E" d="M243.131 1218.217l-10.499-38.998.456-.629 56.997-3 .362.87-46.498 41.998"/>
  <path fill="#CF7B5E" d="M232.958 1178.245l10.5 38.998 46.498-41.998"/>
  <path fill="#D08663" d="M243.46 1218.562l-.181-.846 46.498-41.998.745.086 50.998 73.496-.564.761"/>
  <path fill="#D08663" d="M289.956 1175.245l-46.498 41.998 97.495 31.498"/>
  <path fill="#B4724B" d="M454.747 1349.729l215.989-218.989.836.491-28.498 97.496-.208.279L455.375 1350.5"/>
  <path fill="#B4724B" d="M642.438 1227.743l28.498-97.495-215.989 218.988 94.63-61.32"/>
  <path fill="#CF7D4E" d="M454.603 1350.064l6.001-199.489.453-.483 209.989-19.499.402.849-215.989 218.99"/>
  <path fill="#CF7D4E" d="M460.947 1149.747l-6 199.489 215.989-218.988"/>
  <path fill="#E6935F" d="M460.646 1150.388l86.995-196.49.868-.083 122.994 176.991-.364.783-209.989 19.499"/>
  <path fill="#E6935F" d="M460.947 1149.747l209.989-19.499-122.994-176.991"/>
  <path fill="#E89B6F" d="M372.291 1281.391l-.178-.412 8.995-155.917.652-.447 79.496 25.499.261.757-88.461 130.443-.735.102"/>
  <path fill="#E89B6F" d="M372.456 1280.164l.03.025 88.461-130.442-79.496-25.499"/>
  <path fill="#DC9168" d="M289.701 1176.374l.167-.722 91.496-50.997.719.591-40.498 124.494-.886.13"/>
  <path fill="#DC9168" d="M289.956 1175.245l50.997 73.496 40.498-124.493"/>
  <path fill="#E89873" d="M289.629 1175.959l10.499-38.998.41-.365 80.996-11.999.317.931-91.496 50.997"/>
  <path fill="#E89873" d="M300.455 1136.247l-10.499 38.998 91.495-50.997"/>
  <path fill="#D18B67" d="M381.113 1125.016l16.499-107.995.396-.415 59.997-11.999.52.759-76.496 119.994"/>
  <path fill="#D18B67" d="M397.95 1016.253l-16.499 107.995 76.496-119.994"/>
  <path fill="#D49167" d="M222.408 959.056l-.185-.766 40.404-50.873h.783l85.59 107.87-.597.766"/>
  <path fill="#D49167" d="M262.862 906.884l-40.404 50.873 125.995 56.996"/>
  <path fill="#ECA178" d="M381.455 1125.567l-.269-.744 76.496-119.994.922.258 3 145.493-.653.486"/>
  <path fill="#ECA178" d="M381.451 1124.248l79.496 25.499-3-145.493"/>
  <path fill="#D18961" d="M460.604 1150.601l-3-145.493.253-.445 89.995-50.997.703.637-86.994 196.49"/>
  <path fill="#D18961" d="M457.947 1004.254l3 145.493 86.995-196.49"/>
  <path fill="#BD7453" d="M453.446 972.574l-80.996-26.999.183-.974 175.491 9 .068.991-94.494 17.999"/>
  <path fill="#BD7453" d="M547.942 953.257l-175.49-9 80.996 26.999"/>
  <path fill="#864D39" d="M262.857 908.201l.192-.972 96.989 5.874.434.314 12.6 31.498-.626.659"/>
  <path fill="#864D39" d="M359.851 912.758l-96.989-5.874 109.59 37.373"/>
  <path fill="#87432E" d="M262.627 908.039l.695-.709 76.591 58.373.188.308 9 49.497-.884.4"/>
  <path fill="#87432E" d="M262.862 906.884l85.209 107.388.382.481-9-49.497"/>
  <path fill="#803F2B" d="M339.306 966.498l-76.591-58.373.465-.871 109.59 37.373.106.895-32.998 21"/>
  <path fill="#803F2B" d="M372.452 944.257l-109.59-37.373 76.591 58.372"/>
  <path fill="#3A2B24" d="M339.427 966.566l-.086-.888 32.998-20.999.768.4 1.5 34.499-.681.487"/>
  <path fill="#3A2B24" d="M339.453 965.256l34.499 13.5-1.5-34.499"/>
  <path fill="#4C251F" d="M348.117 1015.687l-8.999-49.498.674-.555 34.498 13.5.226.755-25.499 35.997"/>
  <path fill="#4C251F" d="M339.453 965.256l9 49.497 25.499-35.997"/>
  <path fill="#5D392D" d="M348.594 1016.097l-.393-.789 25.499-35.997.829.019 23.998 37.497-.436.77"/>
  <path fill="#5D392D" d="M373.952 978.756l-25.499 35.997 49.497 1.5"/>
  <path fill="#F2CDBB" d="M397.686 1017.366l-23.999-37.497.566-.748 83.996 25.498-.047.969-59.997 11.999"/>
  <path fill="#F2CDBB" d="M373.952 978.756l23.998 37.497 59.997-11.999"/>
  <path fill="#AF684A" d="M372.321 945.51l.445-.884 80.996 27 .338.407 4.499 32.997-.783.477"/>
  <path fill="#AF684A" d="M453.448 971.256l-80.996-26.999 85.495 59.997"/>
  <path fill="#BE7351" d="M457.608 1005.165l-4.5-32.998.402-.558 94.494-18 .341.927-89.995 50.997"/>
  <path fill="#BE7351" d="M457.947 1004.254l89.995-50.997-94.494 17.999"/>
  <path fill="#301C16" d="M898.671 1312.869l.104-.683 122.995-94.496.804.417-10.498 254.987-.909.267"/>
  <path fill="#301C16" d="M1011.42 1472.23l10.498-254.987-122.994 94.495"/>
  <path fill="#DB8051" d="M696.813 1483.82l-.083-.808.095-.084.316-.125 314.419-10.229.495.643-48.659 162.461-.726.291"/>
  <path fill="#DB8051" d="M696.906 1482.543l265.856 152.148 48.658-162.461L697 1482.459"/>
  <path fill="#D47C4C" d="M696.826 1482.928l.246-.217-.015-.162 201.701-170.348.731.094 112.496 160.492-.392.787-314.42 10.229"/>
  <path fill="#D47C4C" d="M697.223 1482.088l.121.068-.344.303 314.42-10.229-112.496-160.492"/>
  <path fill="#B16543" d="M696.919 1483.244l-.203-.648 37.423-78.733.208-.222 164.49-91.496.565.82-201.7 170.347-.571.053"/>
  <path fill="#B16543" d="M697.011 1481.967l.212.121 201.701-170.35-164.489 91.496"/>
  <path fill="#C57245" d="M621.472 1550.055l-.207-.862.38-.334.126-.08.73-.324 74.23-65.443.58-.059 265.821 152.266.212.627-.356.328-.251.002"/>
  <path fill="#C57245" d="M962.711 1634.846l.016-.037-265.821-152.266-74.288 65.494-.8.356-.38.334 341.265 86.121"/>
  <path fill="#D47D4E" d="M848.172 1899.777l-226.997-349.935.542-.756 341.264 86.121-.244.969-340.029-85.809 225.783 348.065 44.296-108.371.926.378-44.658 109.256"/>
  <path fill="#D47D4E" d="M962.703 1634.848l-341.265-86.121 226.998 349.935 44.658-109.256"/>
  <path fill="#9B6142" d="M657.847 2053.839l-.336-.185-.625-.781-.106-.368.078-.703.184-.335 188.612-151.164-284.525-94.324-.289-.25-.318-.632-.027-.382.314-.949.25-.29.632-.318.382-.027 286.92 95.119.176.102.297.265.121.164.306.664.045.199.009.398-.037.2-.154.377-.09.167-.186.255-.128.139-190.435 152.63-.367.107"/>
  <path fill="#9B6142" d="M657.902 2053.342l-.625-.781.078-.704 189.33-151.74-285.398-94.613-.318-.632.315-.949.632-.318 286.92 95.12.297.265.305.664.009.399-.154.377-.063.11-.15.201-.088.091-190.387 152.588"/>
  <path fill="#9B6142" d="M657.902 2053.342l-.625-.781.078-.704 189.33-151.74-285.398-94.613-.318-.632.315-.949.632-.318 286.92 95.12.297.265.305.664.009.399-.154.377-.063.11-.15.201-.088.091-190.387 152.588"/>
  <path fill="#9B6142" d="M658.292 2053.029l-.625-.781 190.048-152.316-286.271-94.903.314-.949 286.921 95.119.305.664-.154.377-.15.201"/>
  <path fill="#9B6142" d="M657.746 2052.498l-.625-.781.078-.703 189.329-151.74-285.398-94.614-.317-.632.314-.949.632-.317 286.921 95.119.297.265.305.665.009.398-.154.377-.063.11-.15.201-.088.091-190.387 152.588"/>
  <path fill="#9B6142" d="M658.136 2052.186l-.625-.782 190.048-152.315-286.271-94.903.314-.95 286.92 95.119.306.665-.154.376-.151.202"/>
  <path fill="#9B6142" d="M658.136 2052.186l-.625-.782 190.048-152.315-286.271-94.903.314-.95 286.92 95.119.306.665-.154.376-.151.202"/>
  <path fill="#9B6142" d="M657.824 2051.795l190.387-152.588.154-.377-286.92-95.119"/>
  <path fill="#B66C47" d="M477.31 1640.896l-.165.004-7.487-14.605.203-.666 86.995-47.996.742.428 4.503 226.484-.945.236"/>
  <path fill="#B66C47" d="M561.445 1803.711l-4.503-226.484-86.996 47.996 7.487 14.605.08-.17"/>
  <path fill="#D17E51" d="M561.101 1804.564l-4.503-226.484.298-.467 64.497-28.5.689.571-59.994 254.984"/>
  <path fill="#D17E51" d="M556.942 1577.227l4.503 226.484 59.993-254.984"/>
  <path fill="#AC6C49" d="M774.241 2082.002l-116.61-27.904-.31-.225-.37-.602-.06-.378.233-.973.224-.31.603-.37.378-.06 115.359 27.605 73.291-179.303.269-.271.652-.273.383-.002.926.378.271.27.274.652.002.383-73.777 180.492-.094.149-.235.256-.14.107-.579.297-.17.051-.345.041"/>
  <path fill="#AC6C49" d="M657.748 2053.611l-.371-.602.233-.973.602-.37 115.776 27.705 73.453-179.699.653-.274.926.379.273.653-73.777 180.492-.235.256-.579.297-.345.041"/>
  <path fill="#AC6C49" d="M657.748 2053.611l-.371-.602.233-.973.602-.37 115.776 27.705 73.453-179.699.653-.274.926.379.273.653-73.777 180.492-.235.256-.579.297-.345.041"/>
  <path fill="#AC6C49" d="M774.474 2081.029l-116.61-27.904.232-.973 116.193 27.805 73.615-180.096.926.379-73.777 180.492"/>
  <path fill="#AC6C49" d="M657.591 2052.768l-.37-.603.233-.973.602-.37 115.776 27.705 73.453-179.699.653-.273.925.379.274.652-73.778 180.492-.234.256-.579.297-.345.041"/>
  <path fill="#AC6C49" d="M774.317 2080.186l-116.609-27.905.232-.972 116.193 27.804 73.615-180.095.926.378-73.778 180.493"/>
  <path fill="#AC6C49" d="M774.317 2080.186l-116.609-27.905.232-.972 116.193 27.804 73.615-180.095.926.378-73.778 180.493"/>
  <path fill="#AC6C49" d="M657.824 2051.795l116.61 27.904 73.777-180.492"/>
  <path fill="#70675E" d="M712.991 2180.65l-.85-.527-.223-.311-.161-.688.062-.378 60.401-97.228-114.589-27.42-.31-.225-.37-.602-.06-.378.233-.973.224-.31.603-.37.378-.06 116.609 27.904.209.106.346.296.137.19.308.75.037.231-.037.454-.074.223-61.496 98.994-.311.224-.689.161"/>
  <path fill="#70675E" d="M712.405 2179.698l-.161-.688 60.766-97.818-115.262-27.581-.371-.602.233-.973.602-.37 116.61 27.904.346.296.309.75-.038.454-61.496 98.994-.689.162"/>
  <path fill="#70675E" d="M712.405 2179.698l-.161-.688 60.766-97.818-115.262-27.581-.371-.602.233-.973.602-.37 116.61 27.904.346.296.309.75-.038.454-61.496 98.994-.689.162"/>
  <path fill="#70675E" d="M713.518 2179.801l-.85-.528 61.132-98.406-115.936-27.742.232-.973 116.61 27.905.309.75"/>
  <path fill="#70675E" d="M712.249 2178.854l-.162-.688 60.767-97.816-115.263-27.582-.37-.603.233-.973.602-.37 116.61 27.905.346.295.308.75-.037.455-61.496 98.994-.689.161"/>
  <path fill="#70675E" d="M713.362 2178.957l-.85-.527 61.132-98.406-115.936-27.743.232-.972 116.61 27.904.308.75"/>
  <path fill="#70675E" d="M713.362 2178.957l-.85-.527 61.132-98.406-115.936-27.743.232-.972 116.61 27.904.308.75"/>
  <path fill="#70675E" d="M712.937 2178.693l61.497-98.994-116.61-27.904"/>
  <path fill="#3B3A44" d="M962.918 1635.534l-.957-.287 48.658-162.461.128-.213.342-.336.214-.124 184.49-52.496.573.236.476.847-.873.49-.282-.503-183.988 52.353-.159.156"/>
  <path fill="#3B3A44" d="M962.439 1635.391l48.659-162.461.341-.336 184.491-52.496.475.847"/>
  <path fill="#3B3A44" d="M962.521 1635.129l-.238-.581 48.658-162.461.342-.337 184.49-52.496.476.848-233.092 214.988-.581.07"/>
  <path fill="#3B3A44" d="M962.762 1634.691l.056.032 233.092-214.989-184.49 52.496m-49.016 163.278l.035-.117.72-.293.157.834-.091.086"/>
  <path fill="#3B3A44" d="M962.818 1634.723l-.056-.032-.035.118"/>
  <path fill="#3F291F" d="M262.988 908.227l-.454-.375-10.406-40.623.684-.583 107.394 46.497-.229.958"/>
  <path fill="#3F291F" d="M252.457 866.261l10.405 40.623 96.989 5.874"/>
  <path fill="#C17249" d="M548.04 954.597l-.332-.809 47.999-59.997.758-.026 67.497 73.496-.426.835"/>
  <path fill="#C17249" d="M547.942 953.257l115.496 13.499-67.497-73.496"/>
  <path fill="#CA7F5A" d="M293.787 621.005l.481-.87 130.303 55.28 107.224 45.737.288.339 19.501 77.996-.771.531"/>
  <path fill="#CA7F5A" d="M424.219 675.031l-130.302-55.28 257.026 179.013-19.501-77.996m-238.83-100.581l-.397-.277.482-.87.571.244-.104.951-.174.033m-.075-1.368l-.571-.244.397.277"/>
  <path fill="#A5684E" d="M424.177 676.279l-.303-.442-2.873-80.319.876-.347 110.098 126.112-.573.789"/>
  <path fill="#A5684E" d="M531.442 720.768L421.344 594.656l2.873 80.32"/>
  <path fill="#503227" d="M531.222 721.94L421.124 595.829l.595-.779 202 98-.072.928-91.902 28.112"/>
  <path fill="#503227" d="M623.344 692.656l-202-98 110.098 126.112"/>
  <path fill="#A47560" d="M373.963 980.078l-.355-.457-1.5-34.499.787-.431 85.496 59.997-.433.888"/>
  <path fill="#A47560" d="M372.452 944.257l1.5 34.499 83.995 25.498"/>
  <path fill="#B97052" d="M372.583 945.6l-.439-.314-12.601-31.498.57-.675 188.091 40.499-.131.988"/>
  <path fill="#B97052" d="M359.851 912.758l12.601 31.499 175.49 9"/>
  <path fill="#D58B68" d="M348.13 1015.741l.494-.644 49.498 1.5.479.575-16.499 107.995-.973.068"/>
  <path fill="#D58B68" d="M397.95 1016.253l-49.497-1.5 32.998 109.495"/>
  <path fill="#E49972" d="M300.167 1137.32l-35.998-69.596.665-.678 116.994 57.597-.147.943-80.996 11.999"/>
  <path fill="#E49972" d="M381.451 1124.248l-116.994-57.597 35.998 69.596"/>
  <path fill="#F39B74" d="M232.634 1178.953l31.498-111.594.926-.094 35.998 69.596-.181.654-67.496 41.999"/>
  <path fill="#F39B74" d="M264.457 1066.651l-31.499 111.594 67.497-41.998"/>
  <path fill="#DE9975" d="M264.393 1067.943l-.042-.874 83.995-51.897.741.281 32.999 109.494-.699.593"/>
  <path fill="#DE9975" d="M348.453 1014.753l-83.996 51.898 116.994 57.597"/>
  <path fill="#F0A179" d="M88.731 1124.779l133.493-166.491.857.132 41.999 108.894-.311.656-175.492 57.597"/>
  <path fill="#F0A179" d="M222.458 957.757L88.965 1124.249l175.492-57.598"/>
  <path fill="#F5A67D" d="M88.973 1125.57l-.008-.953 175.493-57.597.501.836-88.496 84.595-.494.116"/>
  <path fill="#F5A67D" d="M264.457 1066.651l-175.492 57.598 86.996 26.997"/>
  <path fill="#DE8E60" d="M264.147 1067.674L222.148 958.78l.672-.635 125.995 56.997.057.88-83.996 51.898"/>
  <path fill="#DE8E60" d="M348.453 1014.753l-125.995-56.996 41.999 108.894"/>
  <path fill="#CC7753" d="M510.134 904.422l40.499-104.994.918-.035 44.998 94.496-.391.711-85.497 10.499"/>
  <path fill="#CC7753" d="M550.943 798.764l-40.499 104.995 85.497-10.499"/>
  <path fill="#CB6456" d="M187.141 1342.152l27-28 .728.01 22 24-.328.836-49 4"/>
  <path fill="#CB6456" d="M214.344 1313.656l-27 28 49-4"/>
  <path fill="#C46351" d="M236.132 1338.838l-22-24 .497-.822 60 16-.025.972-38 8"/>
  <path fill="#C46351" d="M214.344 1313.656l22 24 38-8"/>
  <path fill="#C77369" d="M214.147 1314.854l-20-20 .405-.851 144 15-.031.997-124 5"/>
  <path fill="#C77369" d="M194.344 1293.656l20 20 124-5"/>
  <path fill="#AF635D" d="M194.449 1294.997l-.265-.884 33-27 .493-.081 111 42-.228.965"/>
  <path fill="#AF635D" d="M227.344 1266.656l-33 27 144 15"/>
  <path fill="#BD6756" d="M214.372 1314.982l.108-.982 124-5 .176.975-64 21-.284.007"/>
  <path fill="#BD6756" d="M338.344 1308.656l-124 5 60 16"/>
  <path fill="#51352D" d="M171.325 1246.969l-.008-.934 72.114-28.414.659.621-16.114 49.412-.651.315"/>
  <path fill="#51352D" d="M243.458 1217.243l-72.114 28.413 56 21"/>
  <path fill="#F8A579" d="M175.904 1152.541l-.132-.812 88.496-84.596.826.497-31.498 111.595-.695.316"/>
  <path fill="#F8A579" d="M175.961 1151.246l56.997 26.999 31.499-111.594"/>
  <path fill="#D67954" d="M885.358 1049.648l53.996-26.999.599.117 22.5 25.499-.365.831-76.496 1.5"/>
  <path fill="#D67954" d="M961.922 1047.752l-22.5-25.499-53.996 26.999"/>
  <path fill="#EE8862" d="M946.766 1158.48l.208-.878 104.996-22.499.574.659-30 82.496-.782.22"/>
  <path fill="#EE8862" d="M1021.918 1217.243l30-82.495-104.996 22.498"/>
  <path fill="#B15C3A" d="M865.609 1239.248l-17.998-52.497.357-.648 62.996-15 .532.763-44.998 67.497"/>
  <path fill="#B15C3A" d="M865.926 1238.242l44.998-67.497-62.996 15"/>
  <path fill="#BD6E45" d="M736.184 1302.283l-.125-.813 71.183-67.247.838.441-15 94.496-.712.371"/>
  <path fill="#BD6E45" d="M736.245 1300.989l56.185 27.249 15-94.496"/>
  <path fill="#AE5B3C" d="M734.194 1403.771l57.996-74.996.32-.187 106.494-16.5.319.932-164.49 91.494"/>
  <path fill="#AE5B3C" d="M898.924 1311.738l-106.494 16.5-57.995 74.996"/>
  <path fill="#2B1C17" d="M696.808 1483.182l-.244-.543 39.349-180.912.988.115-1.81 102.244-.049.207-37.423 78.732-.697.221"/>
  <path fill="#2B1C17" d="M697.011 1481.967l37.424-78.733 1.81-102.245-39.349 180.913"/>
  <path fill="#C7794F" d="M738.115 1225.429l38.998-116.994.846-.178 70.496 77.997-.203.807-109.495 38.998"/>
  <path fill="#C7794F" d="M777.432 1107.749l-38.999 116.994 109.495-38.998"/>
  <path fill="#D08052" d="M777.217 1108.928l.544-.804 85.494 31.498.303.622-14.998 46.498-.847.182"/>
  <path fill="#D08052" d="M862.926 1139.247l-85.494-31.498 70.496 77.996"/>
  <path fill="#AA593C" d="M777.415 1109.062l.161-.969 124.492-3 .343.874-38.998 34.498-.504.095"/>
  <path fill="#AA593C" d="M901.924 1104.749l-124.492 3 85.494 31.498"/>
  <path fill="#9A533A" d="M910.585 1171.656l-9-65.996.875-.392 44.998 52.497-.204.794-35.998 13.498"/>
  <path fill="#9A533A" d="M910.924 1170.745l35.998-13.499-44.998-52.497"/>
  <path fill="#753B29" d="M847.608 1186.436l14.998-46.498.75-.265 47.998 31.498-.158.904-62.996 15"/>
  <path fill="#753B29" d="M847.928 1185.745l62.996-15-47.998-31.498"/>
  <path fill="#B66240" d="M862.808 1140.509l-.057-.793 38.998-34.498.826.307 9 65.996-.769.486"/>
  <path fill="#B66240" d="M862.926 1139.247l47.998 31.498-9-65.996"/>
  <path fill="#DB8053" d="M792.16 1328.82l40.498-65.997.31-.224 188.99-44.998.334.936-229.488 110.994"/>
  <path fill="#DB8053" d="M792.43 1328.238l229.488-110.995-188.99 44.998"/>
  <path fill="#E98D60" d="M792.368 1328.631l229.488-110.994.523.846-122.994 94.496-.229.097-106.494 16.5"/>
  <path fill="#E98D60" d="M898.924 1311.738l122.994-94.495-229.488 110.995"/>
  <path fill="#F5A274" d="M832.79 1262.681l32.998-23.999.228-.092 155.992-20.998.182.981-188.99 44.998"/>
  <path fill="#F5A274" d="M832.928 1262.241l188.99-44.998-155.992 20.999"/>
  <path fill="#D87950" d="M865.666 1238.809l44.998-67.497.609-.184 110.995 46.498-.127.956-155.993 21"/>
  <path fill="#D87950" d="M865.926 1238.242l155.992-20.999-110.994-46.498"/>
  <path fill="#D37650" d="M910.887 1172.05l.017-.929 35.998-13.5.489.078 74.996 59.997-.506.852"/>
  <path fill="#D37650" d="M910.924 1170.745l110.994 46.498-74.996-59.997"/>
  <path fill="#38271C" d="M622.297 1548.482l6.298-103.937.747-.404 67.836 38.734.082.811-74.134 65.203"/>
  <path fill="#38271C" d="M628.938 1443.732l-6.298 103.938 74.133-65.203"/>
  <path fill="#DD8E5E" d="M454.717 1350.408l.012-.07-82.407-68.921-.093-.665 88.46-130.442.915.295-6.001 199.489-.821.369"/>
  <path fill="#DD8E5E" d="M372.486 1280.189l82.461 68.967-.066.026.066.054 6-199.489"/>
  <path fill="#C98758" d="M354.63 1350.5l-.484-.627 17.978-68.915.805-.257 82.399 68.914-.321.885"/>
  <path fill="#C98758" d="M372.452 1280.24l-17.978 68.916h100.377"/>
  <path fill="#4A4B52" d="M960.904 1635.375l-.508-.838.088-.627 233.03-215.025.321-.133.652-.023.331.111 112.494 90.34.18.471-.143.861-.324.388-345.523 124.686"/>
  <path fill="#4A4B52" d="M962.542 1634.393l233.029-215.026.653-.022 112.494 90.34-.144.86-345.523 124.685"/>
  <path fill="#4A4B52" d="M960.823 1634.277l233.03-215.025.652-.023 112.494 90.34-.144.861-345.523 124.685"/>
  <path fill="#4A4B52" d="M1308.404 1510.074l-112.494-90.34-233.029 215.026"/>
  <path fill="#383745" d="M1101.605 1783.463l-.349.842-207.99 6.445-.472-.707 69.787-154.647m-69.487 154.01l207.99-6.445"/>
  <path fill="#484954" d="M1098.898 1783.227l-138.904-147.266-.123-.459.193-.813.317-.353 345.965-125.316.639.299.34.94-.3.639-344.533 124.799 137.86 146.158-.021.707-.727.685"/>
  <path fill="#484954" d="M1100.98 1782.999l-138.904-147.266.194-.812 345.964-125.317.34.94-345.249 125.058 138.382 146.711"/>
  <path fill="#484954" d="M1099.262 1782.884l-138.905-147.266.194-.812 345.965-125.317.339.94-345.249 125.057 138.382 146.712"/>
  <path fill="#484954" d="M1101.344 1782.656l-138.905-147.265 345.965-125.317"/>
  <path fill="#3A3746" d="M950.795 1959.557l-.057-.705 148.533-174.281-205.988 6.679-.516-.483-.034-1 .484-.517 208.25-6.75.467.283.397.824-.069.541-150 176-.705.057"/>
  <path fill="#3A3746" d="M951.881 1959.824l-.762-.648 149.267-175.141-207.119 6.715-.034-1 208.25-6.75.398.824"/>
  <path fill="#3A3746" d="M951.725 1958.98l-.762-.648 149.266-175.14-207.119 6.714-.033-1 208.25-6.75.398.824"/>
  <path fill="#3A3746" d="M951.344 1958.656l150-176-208.25 6.75"/>
  <path fill="#404155" d="M847.53 2104.719l-.9-.365-.246-.214-.308-.536-.061-.321 45.75-313.25.196-.329.567-.423.371-.093.991.144.329.196.423.568.093.371-44.865 307.191 100.414-139.037.326-.201.699-.112.372.088.81.586.2.327.113.698-.088.372-104 144-.268.187-.593.17"/>
  <path fill="#404155" d="M846.817 2103.891l-.307-.536 45.75-313.25.567-.422.99.144.423.568-45.16 309.21 101.609-140.691.699-.112.81.586.113.698-104 144-.593.17"/>
  <path fill="#404155" d="M846.817 2103.891l-.307-.536 45.75-313.25.567-.422.99.144.423.568-45.16 309.21 101.609-140.691.699-.112.81.586.113.698-104 144-.593.17"/>
  <path fill="#404155" d="M847.905 2103.793l-.9-.365 45.75-313.25.99.144-45.455 311.231 102.805-142.346.81.586"/>
  <path fill="#404155" d="M846.661 2103.047l-.307-.535 45.75-313.25.567-.423.99.144.423.568-45.16 309.211 101.609-140.692.698-.112.811.586.112.698-104 144-.592.17"/>
  <path fill="#404155" d="M847.749 2102.949l-.9-.365 45.75-313.25.99.145-45.455 311.23 102.804-142.346.811.586"/>
  <path fill="#404155" d="M846.85 2102.582l46.676-311.32.967-.089 57.631 166.926-.067.456-104.308 144.394"/>
  <path fill="#404155" d="M894.021 1791.336l-46.677 311.32 104.307-144.394"/>
  <path fill="#34333B" d="M712.905 2180.812l-.287-.148-.671-.699-.136-.294-.064-.609.072-.316 61.496-98.994.109-.123.251-.205.142-.082.576-.213.162-.031.324-.008.162.023 72.91 22.957.237.16.347.425.11.265.095.912-.052.28-.251.488-.199.207-134.406 76.037-.32.058"/>
  <path fill="#34333B" d="M712.979 2180.318l-.671-.699-.064-.609 61.496-98.994.251-.205.575-.213.325-.008 72.91 22.957.346.425.096.912-.251.487-134.407 76.037"/>
  <path fill="#34333B" d="M712.979 2180.318l-.671-.699-.064-.609 61.496-98.994.251-.205.575-.213.325-.008 72.91 22.957.346.425.096.912-.251.487-134.407 76.037"/>
  <path fill="#34333B" d="M712.668 2179.273l61.497-98.994.575-.213 72.91 22.957.096.913-134.407 76.037"/>
  <path fill="#34333B" d="M712.822 2179.475l-.671-.7-.064-.609 61.497-98.994.251-.205.575-.213.324-.008 72.911 22.957.346.425.096.912-.251.487-134.407 76.037"/>
  <path fill="#34333B" d="M712.512 2178.43l61.497-98.994.575-.213 72.91 22.957.096.912-134.407 76.037"/>
  <path fill="#34333B" d="M712.512 2178.43l61.497-98.994.575-.213 72.91 22.957.096.912-134.407 76.037"/>
  <path fill="#34333B" d="M712.937 2178.693l134.407-76.037-72.91-22.957"/>
  <path fill="#31333E" d="M847.049 2104.93l-72.91-22.957-.179-.101-.303-.265-.124-.164-.312-.666-.047-.2-.01-.401.037-.201 118.662-290.112.242-.259.595-.292.353-.035.958.262.286.208.363.555.077.346-45.752 313.069-.076.201-.229.352-.154.15-.645.404-.203.072-.416.053"/>
  <path fill="#31333E" d="M774.289 2081.496l-.303-.265-.312-.666-.01-.401 118.662-290.111.595-.293.958.261.363.555-45.752 313.069-.229.351-.646.404-.416.053"/>
  <path fill="#31333E" d="M774.289 2081.496l-.303-.265-.312-.666-.01-.401 118.662-290.111.595-.293.958.261.363.555-45.752 313.069-.229.351-.646.404-.416.053"/>
  <path fill="#31333E" d="M774.439 2081.02l-.312-.666 118.662-290.112.958.262-45.752 313.068-.645.405"/>
  <path fill="#31333E" d="M774.133 2080.652l-.303-.264-.312-.666-.01-.402 118.662-290.111.595-.293.958.262.363.554-45.752 313.069-.23.351-.645.405-.416.052"/>
  <path fill="#31333E" d="M774.283 2080.176l-.312-.666 118.662-290.112.958.262-45.752 313.069-.646.404"/>
  <path fill="#31333E" d="M774.283 2080.176l-.312-.666 118.662-290.112.958.262-45.752 313.069-.646.404"/>
  <path fill="#31333E" d="M774.434 2079.699l72.91 22.957 45.752-313.068"/>
  <path fill="#32303E" d="M712.654 2179.979l-.692-.723.031-.721.278-.244.084-.061 134.407-76.037.35-.053.649.138.298.193.588.799-.105.699-.805.593-.699-.105-.063-.086-133.527 75.539-.087.083"/>
  <path fill="#32303E" d="M713.015 2179.633l-.691-.723.277-.244 134.407-76.037.648.139.589.798-.805.594-.326-.442-133.967 75.788"/>
  <path fill="#32303E" d="M713.015 2179.633l-.691-.723.277-.244 134.407-76.037.648.139.589.798-.805.594-.326-.442-133.967 75.788"/>
  <path fill="#32303E" d="M712.669 2179.271l.178-.169 134.407-76.038.589.799"/>
  <path fill="#32303E" d="M712.859 2178.79l-.693-.721.279-.247 134.407-76.037.648.139.59.798-.805.593-.326-.441-133.967 75.788"/>
  <path fill="#32303E" d="M712.512 2178.43l.179-.172 134.407-76.037.59.798"/>
  <path fill="#32303E" d="M634.729 2303.736l77.783-125.306.179-.172 134.407-76.037.59.798-212.189 201.343"/>
  <path fill="#32303E" d="M712.937 2178.693L635.154 2304l212.19-201.344"/>
  <path fill="#2B2E3E" d="M846.546 2103.928l-.09-.701.611-.791.702-.09.781.603.09.701-.612.791-.701.09"/>
  <path fill="#2B2E3E" d="M847.5594249 2102.7707348l.7811118.6033531-.6113.7914-.7811118-.6033531z"/>
  <path fill="#2B2E3E" d="M847.5594249 2102.7707348l.7811118.6033531-.6113.7914-.7811118-.6033531zM847.157 2103.137l.781.603"/>
  <path fill="#2B2E3E" d="M847.3387326 2101.8902273l.7823949.6016752-.6096.7927-.7823949-.6016752zM847 2102.294l.782.602"/>
  <path fill="#2B2E3E" d="M635.154 2304.5l-.344-.862L847 2102.294l.782.602-109.814 201.343-.439.261"/>
  <path fill="#2B2E3E" d="M635.154 2304h102.375l109.815-201.344"/>
  <path fill="#33364A" d="M1429.163 1994.752l-208-94-.208-.177-.294-.435-.086-.259-.037-.893.48-.52 1-.041.52.479.011.277 206.732 93.427v-209.225l.5-.5h1l.5.5v210l-.061.24-.23.42-.168.18-.706.455-.232.079-.477.036"/>
  <path fill="#33364A" d="M1431.088 1994.411l-208-94-.294-.435-.037-.893 1-.041.023.584 207.472 93.762.248-.16V1783.5h1v210l-.229.42-.707.455"/>
  <path fill="#33364A" d="M1429.369 1994.296l-208-94-.294-.436-.037-.892 1-.041.024.584 207.471 93.761.248-.16v-209.727h1v210l-.229.42-.706.455"/>
  <path fill="#33364A" d="M1432 1783.5v210l-.706.455-208-94-.037-.893"/>
  <path fill="#33364A" d="M1221.213 1899.453l-.25-.662.412-.912.662-.25 208 94 .25.662-.412.912-.662.25"/>
  <path fill="#33364A" d="M1223.6349113 1898.2434234l208.0078702 93.9949972-.4122118.9122113-208.0078702-93.9949972z"/>
  <path fill="#33364A" d="M1221.9158436 1898.1282397l208.0078702 93.9949972-.4122118.9122113-208.0078702-93.9949972zm1.4281564.5277603l208 94"/>
  <path fill="#555669" d="M1429.78 1783.884l-.499-.501.353-205.547-123.425-66.998-.201-.678.476-.879.678-.201 123.95 67.283.192.184.261.44.071.257-.355 206.143-.501.499"/>
  <path fill="#555669" d="M1432.5 1783.501l-1-.002.354-205.845-123.688-67.14.477-.879 123.95 67.283.261.44"/>
  <path fill="#555669" d="M1430.781 1783.386l-1-.002.354-205.845-123.688-67.141.477-.878 123.95 67.283.262.44"/>
  <path fill="#555669" d="M1432 1783.5l.354-206.143-123.95-67.283"/>
  <path fill="#363547" d="M1221.382 1900.52l-.486-.874.193-.679 207.903-116.008-123.219-272.588.25-.662.913-.412.662.25 123.595 273.426.019.363-.213.643-.23.279-208.707 116.455"/>
  <path fill="#363547" d="M1223.537 1900.392l-.486-.873 208.304-116.232-123.407-273.007.912-.412 123.596 273.426-.213.643"/>
  <path fill="#363547" d="M1221.818 1900.276l-.486-.873 208.305-116.231-123.408-273.007.913-.412 123.595 273.426-.213.642"/>
  <path fill="#363547" d="M1308.404 1510.074L1432 1783.5l-208.706 116.455"/>
  <path fill="#44435A" d="M1150.018 2117.286l-.538-.089-.136-.044-.255-.124-.118-.08-.675-.615-.092-.111-.146-.244-.055-.131-.138-.528-.016-.141.008-.284.026-.143 72-216 .044-.096.105-.178.062-.083.273-.3.077-.069.168-.121.091-.052.681-.299.099-.032.204-.042.103-.01.408.002.103.01.204.044.1.034 208 94 .123.078.214.186.093.109.294.459.06.129.079.273.019.143-.006.914-.021.141-.082.273-.061.131-.299.455-.097.107-.218.183-.122.075-280 122-.138.038-.282.035"/>
  <path fill="#44435A" d="M1149.562 2116.704l-.254-.124-.675-.615-.147-.243-.137-.528.008-.284 72-216 .106-.179.273-.299.168-.121.681-.299.203-.042.407.002.204.044 208 94 .215.186.294.459.079.273-.006.914-.082.272-.299.455-.218.183-280 122-.282.035"/>
  <path fill="#44435A" d="M1149.562 2116.704l-.254-.124-.675-.615-.147-.243-.137-.528.008-.284 72-216 .106-.179.273-.299.168-.121.681-.299.203-.042.407.002.204.044 208 94 .215.186.294.459.079.273-.006.914-.082.272-.299.455-.218.183-280 122-.282.035"/>
  <path fill="#44435A" d="M1149.645 2116.211l-.675-.615-.138-.528 72-216 .273-.299.681-.299.407.002 208 94 .294.459-.006.914-.299.455-280 122"/>
  <path fill="#44435A" d="M1151.363 2116.326l-.675-.615-.137-.527 72-216 .273-.3.681-.299.407.002 208 94 .294.459-.006.914-.3.455-280 122"/>
  <path fill="#44435A" d="M1151.025 2115.342l72-216 .681-.299 208 94-.006.914-280 122"/>
  <path fill="#44435A" d="M1149.406 2115.861l-.255-.124-.674-.616-.147-.243-.138-.527.009-.285 72-216 .106-.179.274-.3.169-.12.681-.298.202-.042.406.002.204.044 208 94 .215.186.294.459.079.273-.006.914-.082.272-.3.455-.217.183-280 122-.283.035"/>
  <path fill="#44435A" d="M1149.488 2115.368l-.675-.616-.137-.527 72-216 .274-.3.681-.298.406.002 208 94 .294.459-.006.914-.3.455-280 122"/>
  <path fill="#44435A" d="M1151.207 2115.483l-.675-.616-.137-.527 72-216 .274-.3.681-.298.406.002 208 94 .294.459-.006.914-.3.455-280 122"/>
  <path fill="#44435A" d="M1150.869 2114.498l72-216 .681-.298 208 94-.006.914-280 122"/>
  <path fill="#44435A" d="M1149.488 2115.368l-.675-.616-.137-.527 72-216 .274-.3.681-.298.406.002 208 94 .294.459-.006.914-.3.455-280 122"/>
  <path fill="#44435A" d="M1149.15 2114.383l72-216 .681-.298 208 94-.006.914-280 122"/>
  <path fill="#44435A" d="M1150.869 2114.498l72-216 .681-.298 208 94-.006.914-280 122"/>
  <path fill="#44435A" d="M1151.344 2114.656l280-122-208-94"/>
  <path fill="#2B2E3E" d="M1151.72 2115.959l-.996-.09.078-.873.298-.413 280-122 .474.04.7.459-.548.836-.474-.311-279.481 121.774"/>
  <path fill="#2B2E3E" d="M1151.222 2115.914l.078-.873 280-122 .7.459"/>
  <path fill="#2B2E3E" d="M1432.854 2304h-1l.146-310.231-.247-.163-280.181 121.317-.053.579-.997-.092.082-.874.299-.413 280.701-121.541.471.041.698.457.227.418"/>
  <path fill="#2B2E3E" d="M1151.021 2115.456l.081-.874 280.7-121.541.698.457-.146 310.502"/>
  <path fill="#2B2C39" d="M1151.5279997 2114.5237104l.3398395.9415406-.7581236.273637-.3398395-.9415406zm-.5069997.8332896l.757-.273"/>
  <path fill="#2B2C39" d="M1094.904 2304.5l-.479-.643 56.439-189.343.759-.273 281.011 189.344-.28.915"/>
  <path fill="#2B2C39" d="M1094.904 2304h337.45l-281.01-189.344"/>
  <path fill="#3E3C4C" d="M1220.938 1899.268l-122.26-115.696-.155-.322-.054-.666.099-.344 207.321-272.886.608-.152.887.409.278.561-85.06 388.582-.341.371-.832.257"/>
  <path fill="#3E3C4C" d="M1100.74 1783.324l-.054-.666 207.32-272.887.887.41-85.061 388.582-.832.257"/>
  <path fill="#3E3C4C" d="M1099.021 1783.209l-.054-.666 207.32-272.887.887.409-85.061 388.582-.832.257"/>
  <path fill="#3E3C4C" d="M1223.344 1898.656l85.06-388.582-207.32 272.887"/>
  <path fill="#404155" d="M1150.709 2116.291l-.289-.251-.316-.633-.028-.382 71.698-215.091-121.565-115.039-.156-.35-.02-.707.137-.358.687-.726.35-.156.707-.02.357.137 122.26 115.695.088.111.142.241.053.131.131.521.015.142-.011.28-.025.139-72 216-.251.289-.633.316-.382.027"/>
  <path fill="#404155" d="M1150.867 2115.816l-.316-.632 71.799-215.395-121.797-115.258-.02-.707.688-.726.707-.02 122.26 115.695.141.242.131.521-.011.28-72 216-.633.317"/>
  <path fill="#404155" d="M1150.867 2115.816l-.316-.632 71.799-215.395-121.797-115.258-.02-.707.688-.726.707-.02 122.26 115.695.141.242.131.521-.011.28-72 216-.633.317"/>
  <path fill="#404155" d="M1151.975 2115.658l-.95-.316 71.9-215.697-122.029-115.477.688-.727 122.26 115.696.131.521"/>
  <path fill="#404155" d="M1150.711 2114.973l-.316-.633 71.798-215.395-121.797-115.257-.019-.708.687-.726.707-.02 122.26 115.696.142.241.131.521-.011.281-72 216-.633.316"/>
  <path fill="#404155" d="M1151.818 2114.814l-.949-.316 71.9-215.697-122.029-115.477.688-.726 122.26 115.695.13.521"/>
  <path fill="#404155" d="M1151.818 2114.814l-.949-.316 71.9-215.697-122.029-115.477.688-.726 122.26 115.695.13.521"/>
  <path fill="#404155" d="M1151.344 2114.656l72-216-122.26-115.695"/>
  <path fill="#433F56" d="M1150.852 2116.788l-.275-.104-200-156-.188-.333-.087-.703.101-.369.616-.789.333-.188.702-.087.369.101 197.035 153.688-49.44-328.281.091-.371.42-.569.328-.197.989-.148.371.091.568.42.197.328 50 332-.043.29-.242.506-.199.216-.802.469-.285.067"/>
  <path fill="#433F56" d="M1150.885 2116.289l-200-156-.087-.702.615-.789.702-.087 198.024 154.458-49.627-329.521.42-.568.988-.148.568.42 50 332-.242.505-.802.469"/>
  <path fill="#433F56" d="M1150.885 2116.289l-200-156-.087-.702.615-.789.702-.087 198.024 154.458-49.627-329.521.42-.568.988-.148.568.42 50 332-.242.505-.802.469"/>
  <path fill="#433F56" d="M1151.192 2115.895l-200-156 .616-.79 199.011 155.229-49.813-330.76.988-.148 50 332"/>
  <path fill="#433F56" d="M1150.729 2115.445l-200-156-.087-.702.615-.789.702-.087 198.023 154.459-49.627-329.521.42-.569.989-.148.568.42 50 332-.242.506-.802.468"/>
  <path fill="#433F56" d="M1151.036 2115.051l-200-156 .615-.789 199.012 155.229-49.813-330.761.988-.148 50 332"/>
  <path fill="#433F56" d="M1151.036 2115.051l-200-156 .615-.789 199.012 155.229-49.813-330.761.988-.148 50 332"/>
  <path fill="#433F56" d="M951.344 1958.656l200 156-50-332"/>
  <path fill="#2D3242" d="M1094.904 2304l-143.447-345.073-.285-.033-103.712 143.601.064.484-.992.13-.09-.68.091-.359 104-144 .463-.204.867.101.405.304 143.56 345.344"/>
  <path fill="#2D3242" d="M847.028 2103.044l-.09-.681 104-144 .868.101 143.56 345.344"/>
  <path fill="#2D3242" d="M847.028 2103.044l-.09-.681 104-144 .868.101 143.56 345.344-.777.58"/>
  <path fill="#2D3242" d="M847.344 2102.656L1094.904 2304l-143.56-345.344"/>
  <path fill="#2E2E38" d="M1151.347 2114.951l-.124-.389-199.576-155.668-.461.352-.607-.795.769-.587.611.003 200 156 .169.242.172.537"/>
  <path fill="#2E2E38" d="M950.882 1958.849l.769-.587 200 156 .172.537"/>
  <path fill="#2E2E38" d="M950.882 1958.849l.769-.587 200 156 .172.537-56.439 189.344-.942.049"/>
  <path fill="#2E2E38" d="M951.344 1958.656L1094.904 2304l56.44-189.344"/>
  <path fill="#393744" d="M846.668 2103.845l-.193-.981.393-.587.752-.148.587.393.193.981-.393.587-.752.148"/>
  <path fill="#393744" d="M847.737323 2102.6489718l.1933065.9801189-.7515226.148221-.1933065-.9801189z"/>
  <path fill="#393744" d="M847.737323 2102.6489718l.1933065.9801189-.7515226.148221-.1933065-.9801189zm-.675323.6090282l.751-.149"/>
  <path fill="#393744" d="M737.529 2304.5l-.438-.739 109.814-201.344.754-.148 247.561 201.343-.316.888"/>
  <path fill="#393744" d="M737.529 2304h357.375l-247.56-201.344"/>
  <path fill="#2E2E3A" d="M410.334 1926.844l-2-140.668.048-.221 68.755-145.498.896-.016.071.397-66.783 286.113"/>
  <path fill="#2E2E3A" d="M477.433 1639.828l-68.755 145.498 2 140.668 66.782-286.113"/>
  <path fill="#404155" d="M410.348 1926.725l66.782-286.114.932-.115 83.984 163.83-.13.617-150.767 122.284"/>
  <path fill="#404155" d="M477.46 1639.881l-66.782 286.113 150.767-122.283"/>
  <path fill="#393744" d="M473.904 2075.666l-.483-.301-.195-.226-63.768-147.707-.04-.158-.026-.317.013-.16.144-.586.062-.149.171-.269.108-.121 150.766-122.283.295-.112.597-.024.303.087.791.541.191.251.193.566.003.316-86.998 269.99-.172.244-.452.346-.28.101-.935.045"/>
  <path fill="#393744" d="M473.685 2074.94l-63.768-147.707-.027-.317.144-.586.171-.269 150.766-122.284.597-.024.791.541.194.566-86.998 269.991-.452.345-.935.045"/>
  <path fill="#393744" d="M473.685 2074.94l-63.768-147.707-.027-.317.144-.586.171-.269 150.766-122.284.597-.024.791.541.194.566-86.998 269.991-.452.345-.935.045"/>
  <path fill="#393744" d="M410.375 1927.035l.145-.586 150.766-122.283.791.541-86.998 269.99-.935.045"/>
  <path fill="#393744" d="M473.529 2074.098l-63.769-147.707-.026-.318.143-.587.171-.269 150.767-122.283.598-.024.791.542.193.566-86.998 269.99-.452.346-.935.044"/>
  <path fill="#393744" d="M410.219 1926.192l.144-.587 150.767-122.283.791.542-86.998 269.99-.935.045"/>
  <path fill="#393744" d="M410.219 1926.192l.144-.587 150.767-122.283.791.542-86.998 269.99-.935.045"/>
  <path fill="#393744" d="M561.445 1803.711l-150.767 122.283 63.769 147.707"/>
  <path fill="#30303C" d="M538.803 2203.839l-.291-.249-65.246-128.365-.088-.278-.048-.476.024-.291 87.019-270.086.248-.292.629-.323.382-.03.952.307.291.247.323.629.031.382-86.809 269.402 64.967 127.814.03.382-.219.672-.249.29-.892.453-.381.031"/>
  <path fill="#30303C" d="M538.958 2203.363l-65.247-128.365-.052-.186-.031-.381.023-.194 86.998-269.99.629-.322.952.306.323.629-86.872 269.599 65.06 127.998-.219.672-.892.453"/>
  <path fill="#30303C" d="M538.958 2203.363l-65.247-128.365-.052-.186-.031-.381.023-.194 86.998-269.99.629-.322.952.306.323.629-86.872 269.599 65.06 127.998-.219.672-.892.453"/>
  <path fill="#30303C" d="M539.404 2203.137l-65.247-128.366-.03-.38 86.998-269.991.952.307-86.935 269.795 65.153 128.182"/>
  <path fill="#30303C" d="M539.405 2203.139l-65.849-128.983-.053-.187-.031-.381.023-.193 86.998-269.991.629-.322.952.307.323.629-86.872 269.597 65.661 128.614-.218.672-.89.455"/>
  <path fill="#30303C" d="M539.85 2202.911l-65.849-128.982-.03-.381 86.998-269.99.952.306-86.935 269.794 65.755 128.798"/>
  <path fill="#30303C" d="M539.85 2202.911l-65.849-128.982-.03-.381 86.998-269.99.952.306-86.935 269.794 65.755 128.798"/>
  <path fill="#30303C" d="M561.445 1803.711l-86.998 269.99 65.848 128.983"/>
  <path fill="#25242A" d="M539.169 2203.867l-.302-.182-.409-.521-.106-.336 21.752-398.355.127-.307.42-.467.293-.16.965-.154.329.06.545.314.216.253 57.817 148.783.058.246.021.418-.028.251-79.588 249.657-.219.277-.567.339-.347.064"/>
  <path fill="#25242A" d="M539.26 2203.375l-.409-.52 21.752-398.355.42-.467.965-.154.545.313 57.817 148.784.034.165.011.334-.023.168-79.569 249.572-.567.34"/>
  <path fill="#25242A" d="M539.26 2203.375l-.409-.52 21.752-398.355.42-.467.965-.154.545.313 57.817 148.784.034.165.011.334-.023.168-79.569 249.572-.567.34"/>
  <path fill="#25242A" d="M539.35 2202.883l21.752-398.356.965-.154 57.817 148.783.011.334-79.569 249.572"/>
  <path fill="#25242A" d="M539.104 2202.531l-.409-.519 21.752-398.356.42-.467.966-.153.544.314 57.817 148.783.034.164.01.333-.023.169-79.569 249.572-.566.34"/>
  <path fill="#25242A" d="M539.194 2202.039l21.752-398.355.965-.154 57.817 148.783.011.333-79.569 249.573"/>
  <path fill="#25242A" d="M539.194 2202.039l21.752-398.355.965-.154 57.817 148.783.011.333-79.569 249.573"/>
  <path fill="#25242A" d="M619.262 1952.494l-57.817-148.783-21.752 398.355"/>
  <path fill="#34323D" d="M539.637 2204.121l-.809-.525-.198-.251-.204-.572-.006-.32 79.569-249.572.175-.246.459-.348.284-.101.941-.034.291.081.482.315.191.233 52.833 132.09.034.15.022.3-.012.152-.132.558-.057.141-.154.259-.098.118-132.402 117.482-.295.125-.605.045"/>
  <path fill="#34323D" d="M539.101 2203.177l-.205-.572 79.569-249.572.459-.347.941-.034.482.315 52.834 132.09.022.3-.133.559-.154.259-132.402 117.482-.605.045"/>
  <path fill="#34323D" d="M539.101 2203.177l-.205-.572 79.569-249.572.459-.347.941-.034.482.315 52.834 132.09.022.3-.133.559-.154.259-132.402 117.482-.605.045"/>
  <path fill="#34323D" d="M539.373 2202.758l79.569-249.572.941-.034 52.833 132.09-.132.559-132.402 117.482"/>
  <path fill="#34323D" d="M538.944 2202.333l-.204-.571 79.569-249.573.459-.347.941-.033.482.314 52.833 132.09.023.301-.132.559-.155.259-132.403 117.482-.605.045"/>
  <path fill="#34323D" d="M539.217 2201.914l79.569-249.572.941-.033 52.833 132.089-.132.56-132.403 117.482"/>
  <path fill="#34323D" d="M539.217 2201.914l79.569-249.572.941-.033 52.833 132.089-.132.56-132.403 117.482"/>
  <path fill="#34323D" d="M619.262 1952.494l-79.569 249.572 132.403-117.482"/>
  <path fill="#303237" d="M539.681 2204.298l-.563-.428-.193-.331-.133-.99.098-.37.428-.563.331-.192 171.279-23.11-40.052-92.289-.006-.382.259-.659.266-.275.917-.398.383-.006.658.259.274.266 40.842 94.109.041.225-.023.445-.064.221-.392.693-.156.168-.368.249-.213.081-173.244 23.374"/>
  <path fill="#303237" d="M539.421 2203.472l-.134-.991.429-.562 171.934-23.197-40.315-92.896.259-.658.917-.398.658.259 40.841 94.11-.023.445-.391.693-.369.249-173.244 23.373"/>
  <path fill="#303237" d="M539.421 2203.472l-.134-.991.429-.562 171.934-23.197-40.315-92.896.259-.658.917-.398.658.259 40.841 94.11-.023.445-.391.693-.369.249-173.244 23.373"/>
  <path fill="#303237" d="M539.917 2203.404l-.134-.99 172.589-23.285-40.579-93.502.917-.398 40.842 94.109-.392.693"/>
  <path fill="#303237" d="M539.265 2202.629l-.134-.99.429-.563 171.934-23.197-40.315-92.897.259-.658.917-.398.658.26 40.841 94.109-.023.444-.392.696-.368.249-173.244 23.373"/>
  <path fill="#303237" d="M539.76 2202.562l-.134-.991 172.589-23.285-40.578-93.503.917-.398 40.842 94.109-.392.694"/>
  <path fill="#303237" d="M539.76 2202.562l-.134-.991 172.589-23.285-40.578-93.503.917-.398 40.842 94.109-.392.694"/>
  <path fill="#303237" d="M539.693 2202.066l173.244-23.373-40.841-94.109"/>
  <path fill="#2B2F3A" d="M539.827 2203.057l-.562-.428-.134-.99.429-.563 173.243-23.373.487.224.491.759-.839.543-.319-.493-6.929.935 6.192-.835.134.99"/>
  <path fill="#2B2F3A" d="M711.953 2179.331l-172.193 23.231-.134-.991 173.244-23.373.492.759"/>
  <path fill="#2B2F3A" d="M538.898 2203.72l.291-.84 173.678-24.682.495.759-77.783 125.307-.787.081"/>
  <path fill="#2B2F3A" d="M635.154 2304l77.783-125.307-173.677 24.682"/>
  <path fill="#292A37" d="M268.982 2114.438l-.517-.228-.223-.194-.49-.793-.074-.287.027-.566.102-.278 141.835-186.162.202-.159.458-.193.255-.035.857.103.239.096.399.298.159.202 63.769 147.707.041.219-.018.434-.058.214-.367.69-.146.168-.35.256-.204.088-205.602 38.455"/>
  <path fill="#292A37" d="M268.667 2113.753l-.49-.793.028-.565 141.834-186.163.458-.193.857.104.398.297 63.769 147.707-.018.434-.367.69-.349.255-205.603 38.455"/>
  <path fill="#292A37" d="M268.667 2113.753l-.49-.793.028-.565 141.834-186.163.458-.193.857.104.398.297 63.769 147.707-.018.434-.367.69-.349.255-205.603 38.455"/>
  <path fill="#292A37" d="M268.603 2112.697l141.834-186.162.856.104 63.769 147.707-.367.689-205.603 38.455"/>
  <path fill="#292A37" d="M268.51 2112.91l-.489-.794.027-.565 141.835-186.162.458-.194.857.105.398.298 63.769 147.707-.018.433-.367.69-.35.256-205.602 38.455"/>
  <path fill="#292A37" d="M268.446 2111.854l141.834-186.163.857.105 63.769 147.707-.367.689-205.603 38.455"/>
  <path fill="#292A37" d="M268.446 2111.854l141.834-186.163.857.105 63.769 147.707-.367.689-205.603 38.455"/>
  <path fill="#292A37" d="M410.678 1925.994l-141.834 186.162 205.603-38.455"/>
  <path fill="#23242F" d="M268.484 2113.562l-.669-.745.038-.706.387-.347.114-.077.243-.12.128-.042 205.603-38.455.317.045.542.274.225.228.42.869-.233.668-.9.436-.668-.234-.088-.18-204.574 38.263-.178.161"/>
  <path fill="#23242F" d="M268.856 2113.228l-.668-.745.386-.347.243-.119 205.602-38.455.542.273.42.869-.9.436-.253-.526-205.089 38.36"/>
  <path fill="#23242F" d="M268.856 2113.228l-.668-.745.386-.347.243-.119 205.602-38.455.542.273.42.869-.9.436-.253-.526-205.089 38.36"/>
  <path fill="#23242F" d="M268.522 2112.855l.387-.347 205.602-38.455.42.869"/>
  <path fill="#23242F" d="M268.699 2112.385l-.668-.744.387-.348.243-.119 205.602-38.455.542.272.421.867-.899.438-.255-.525-205.09 38.36"/>
  <path fill="#23242F" d="M268.365 2112.013l.387-.348 205.603-38.455.421.867"/>
  <path fill="#23242F" d="M211.05 2303.856l57.315-191.843.387-.348 205.603-38.455.421.867-262.917 230.299"/>
  <path fill="#23242F" d="M268.844 2112.156L211.529 2304l262.918-230.299"/>
  <path fill="#1F1E2C" d="M512.168 2304.5l-.482-.633 27.52-100.167.844-.212 95.466 100.167-.362.845"/>
  <path fill="#1F1E2C" d="M635.154 2304H512.168l27.52-100.167"/>
  <path fill="#292B37" d="M512.168 2304.5H405.154l-.301-.898 135.141-102.317.603.797L406.643 2303.5h105.525"/>
  <path fill="#292B37" d="M540.295 2201.684L405.154 2304h107.014"/>
  <path fill="#31313B" d="M474.3047623 2072.8181613l.8088496.5207306-.5418413.8416408-.8088496-.5207306zM474.117 2073.325l.809.521"/>
  <path fill="#31313B" d="M211.859 2304.376l-.659-.752 262.917-230.299.809.521-69.293 230.299-.958-.29 68.791-228.63"/>
  <path fill="#31313B" d="M211.529 2304l262.918-230.299L405.154 2304"/>
  <path fill="#393744" d="M541.083 2203.197l-.975-.226.104-.45-65.611-128.519-.588.053-.09-.996.924-.083.49.27 65.849 128.983.042.34"/>
  <path fill="#393744" d="M473.968 2073.557l.924-.083 65.849 128.982-.146.628"/>
  <path fill="#393744" d="M404.675 2303.855l69.293-230.298.924-.083 65.849 128.982-.146.628L405.454 2304.4m134.841-101.716l-65.848-128.983"/>
</svg>
